<?xml version="1.0" encoding="utf-8"?>
<!-- Generator: Adobe Illustrator 21.0.2, SVG Export Plug-In . SVG Version: 6.00 Build 0)  -->
<svg version="1.1" id="Layer_1" xmlns="http://www.w3.org/2000/svg" xmlns:xlink="http://www.w3.org/1999/xlink" x="0px" y="0px"
	 viewBox="0 0 300 90" style="enable-background:new 0 0 300 90;" xml:space="preserve">
<style type="text/css">
	.st0{fill:#608BA3;}
</style>
<g id="XMLID_8_">
	<path id="XMLID_43_" class="st0" d="M44.4,66.2c-0.6-0.2-1.2-0.2-1.8,0.1c-0.7,0.4-1.2,1-1.6,1.7c-0.5,0.8-1,1.4-1.6,1.4
		c0,0-0.7-0.3-1.9-4.3V65c-1.3-4.9-1.6-8.4-1.9-13.4c-0.1-1.8-0.3-3.9-0.5-6.3c0.1,0,0.3-0.1,0.5-0.1c2.4-0.8,5.1-1.6,7.2-2.2
		c-1.9,2.9-2.8,6.6-2.3,10.1c0.4,2.9,3.7,13.4,13.1,12.3h0.2c2.1-0.3,4.2-1.4,5.9-3c2.1-2.1,5.3-7.9,2.4-15.1
		c1.6-0.8,3.2-1.7,4.6-2.8c-0.5,3.2-0.9,7.4-0.5,11c0.4,3.3,2.7,6.8,5.7,6.7c0.1,0,0.2,0,0.2,0c2-0.2,3.6-2,4.6-5.4
		c0.1-0.3,0.2-0.6,0.3-0.8c0.5,1,1.1,1.9,1.6,2.6l0.1,0.1l0.2,0.2c0.3,0.3,0.5,0.6,0.9,0.9c1.5,1.2,3.2,1.7,5.1,1.5
		c0.1,0,0.3,0,0.4,0c1.4-0.2,3.8-1,4.8-4.6c1.2-4.3-0.4-10.7-2.2-15.3c-0.4-1.1-0.7-2.1-1.1-2.9c4.1-0.6,6.6-0.9,10.5-1.3
		c-2.6,3.1-4.2,7.4-4.5,12.1c-0.4,5,1.5,7.5,2.6,8.6c2.1,2,5.1,2.1,6.7,2h0.4c0.5,0,1.3-0.1,2.3-0.4c2.5-0.6,4.6-1.7,6.1-3.4
		c1.1,0.9,2.2,1.4,3.3,1.7h0.2c0.1,0,0.3,0,0.4,0.1c0.3,0,0.5,0,0.8,0c1.8-0.1,3.3-1.1,4.5-3.1v2c-0.1,1,0.4,1.9,1.2,2.3
		c0.4,0.3,0.9,0.4,1.4,0.4c0.4,0,0.8-0.1,1.1-0.3c0.9-0.5,1.1-1.2,1.2-2.3c0.3-1.9,2.6-15,3.6-17.6c0.7-1.7,1.4-2.6,2-2.7
		c0.1,0,0.2,0,0.4,0.3s0.7,1.2,1.1,2.2c1.3,3.1,3,7.3,6.4,8.4c0.6,0.2,1.2,0.3,1.7,0.3c0.3,0,0.6,0,0.9-0.1
		c-0.3,2.9,0.5,5.9,2.2,7.8c1.4,1.6,3.4,2.5,5.7,2.5c0.2,0,0.5,0,0.7,0h0.1c0.3,0,0.7-0.1,1.2-0.2h0.1c2.2-0.5,5.5-2,9-6.3
		c1.7,2.9,3.7,5,5.9,6.4c0,0,0.5,0.3,1,0.3s0.9-0.2,1.2-0.6c0.3-0.4,0.4-0.8,0.3-1.2c-0.1-0.7-0.7-1.1-0.7-1.1
		c-2.1-1.4-3.9-3.9-5.3-7.3c2-3.2,3.7-7.2,5.3-11.8c2.7-8.1,3.2-18.4,1.4-26.4l0,0c-0.4-1.6-0.8-3-1.3-4l-0.1-0.1
		c0-0.1-0.1-0.2-0.1-0.2c-1.4-3.2-3.7-5.1-6.2-5.1h-0.3c-2.5,0.1-4.7,1.9-5.5,4.5c-3.3,10.3-2.1,20.7-0.8,31.7
		c-0.8-0.2-1.6-0.3-2.4-0.3c-1.5,0-3,0.3-4.3,0.9c-1.7,0.8-3.2,2.1-4.4,3.8c-1.3,1.3-2.5,1.9-3.5,1.9c-0.1,0-0.3,0-0.4,0
		c-2.1-0.5-3.7-4.3-4.7-6.9c-0.7-1.7-1-2.5-1.6-3.1c-1-1-1.9-1.2-2.6-1.1c-0.3,0-0.6,0.1-0.9,0.1c-1.6,0.5-3.1,2.7-4.4,6.4
		c-0.1,0.2-0.7,2.3-1.3,4.4c-0.1-3.4-0.4-8.2-0.4-8.7c-0.1-1.1-0.9-1.5-1.6-1.5c-1.1,0-1.6,0.6-1.7,1.6c0,0.6-0.1,3.9-0.1,3.9
		c-0.5,10.1-2.6,17.3-5.1,17.4c-1,0.1-2-1.2-2.6-1.9c0.8-1.8,1.2-3.9,1.3-6.3c0-0.8,0.2-7.7-1.6-10c-0.8-1.1-1.6-1.5-2.7-1.5
		c-1.5,0.1-2.8,0.9-3.3,2.1c-2.5,5.4-0.8,12,2,16.1c0,0.1,0.1,0.1,0.1,0.2c-1.4,1.6-3,2.7-4.4,3.1c-0.6,0.1-1.2,0.2-1.8,0.2
		c-1,0.1-1.8-0.5-2.7-1.2c-1.2-1-1.8-3.4-1.5-6.8c0.6-7.4,4-11.9,7.1-12.7c0,0,1-0.1,1.2-0.1c0.1,0,0.5,0,0.9-0.3
		c0.3-0.2,0.6-0.7,0.6-1.4c0-0.6-0.3-0.9-0.5-1.1c-0.4-0.4-1-0.4-1.3-0.4c0,0-0.3,0-0.6,0c-0.1,0-0.2,0-0.2,0s-20.9,1.3-22.9,1.5
		h-0.1c-1.3,0.1-2.4,0.8-2.8,1.7c-0.2,0.5-0.4,1.5,0.8,2.8c1.8,2,6.5,9.4,6.8,14.7c0,0.8-0.1,1.6-0.3,2.2c-0.6,2.2-1.8,2.6-2.1,2.6
		c-0.1,0-0.2,0-0.3,0c-1,0.1-1.9-0.2-2.7-0.9c-2-1.7-3-5.7-3.4-8c0-0.8-0.1-3.2-0.5-4c-0.3-0.7-0.8-1-1.5-1.1c-0.1,0-0.3,0-0.4,0
		c-0.4,0-0.8,0.2-1,0.5c-0.7,0.8-0.7,1.9-0.6,2.9v0.3c0.2,3.1-0.6,7.2-1.2,8.7c-0.1,0.1-0.1,0.3-0.2,0.5c-0.3,0.7-0.8,2-1.3,2.1
		c-0.3,0-0.7-0.6-1.1-4.1v-0.3c-0.7-6.2,2.7-15,3.1-16l0.1-0.1c0.2-0.5,0.1-1.1-0.2-1.6c-0.4-0.6-1-1.1-1.7-1.3
		c-0.4-0.1-0.7-0.1-1.1-0.1c-0.7,0.1-2,0.5-2.8,2.4c-1.2,2.6-4.5,4.9-7.1,6.1c-0.7-1.3-1.7-2.7-2.5-3.2c-1.2-0.8-2.5-0.8-3.3-0.7H55
		c-2.6,0.4-3.4,1.9-3.6,2.7c-0.4,1.5,0.2,3.4,1.4,4.5c1.2,1,2.8,1.4,4.7,1.2c0.5-0.1,1-0.2,1.6-0.4c0.5,1.4,0.7,2.9,0.7,4.3
		c0.1,7.3-3.7,8.9-6,9.2c-3.9,0.5-6.9-3.2-7.9-9.6c-0.7-4.6,1.1-7.4,2.3-8.7c1-1.1,2.2-1.9,3.3-2.3c0.3-0.1,1.2-0.2,1.4-0.2
		c0.9-0.1,1.5-0.9,1.4-1.7c-0.1-0.9-0.8-1.5-1.7-1.5c-0.2,0-0.6,0.1-1.2,0.1c-0.7,0.1-2,0.3-2.4,0.4c-4.9,0.8-9.7,1.9-14.2,3.2h-0.1
		c-0.4-5.6-0.6-10.9-0.4-15.3c0.1-2.2,0.3-4.3,0.4-6.6c0.2-2.5,0.4-5.3,0.6-8.6c0.1-1.2-0.2-2.1-0.8-2.6c-0.5-1.2-1.4-1.1-2.1-1
		c-1.4,0.2-2.3,1.3-2.6,3.2c-0.2,1.3-0.3,3.2-0.5,6.6c-0.1,2-0.3,4.5-0.5,7.7c0,6.4,0.2,12.2,0.6,17.6c-3.8,1.3-7.3,2.7-10.5,4.2
		c-0.5-5-0.5-7.7-0.3-10.6l0.1-0.9c0.3-5.2,0.6-8.7-1-10.5c-0.7-0.8-1.6-1.2-2.9-1.3c-0.9-0.1-1.9,0-2.9,0.3
		C6.9,25.7,0.8,31,0.1,34.8c-0.3,1.4,0.2,2.7,1.3,3.4c0.8,0.5,1.7,0.7,2.5,0.4c1.1-0.3,1.8-1.2,2.7-2.2c0.7-0.9,1.6-2,2.9-2.9
		c1.9-1.3,2.9-1.9,3.5-1.8s0.9,1.3,0.8,3.6c-0.3,4.7-0.1,9.8,0.4,14.4c-4.7,2.8-11.8,7.4-12,7.6c-0.7,0.7-2,1.8-2,3.1
		c0,0.6,0.2,1.1,0.6,1.5c0.3,0.3,0.9,1,2,1c0.2,0,0.4,0,0.5-0.1c0.6-0.1,1.2-0.5,1.7-1c0,0,0.3-0.2,0.7-0.5c2-1.3,6.9-4.5,9.3-6.3
		c0.1,0.5,0.2,1,0.3,1.5c1,5.7,2.2,12.1,3.9,14.4c0.3,0.4,0.9,0.6,1.7,0.4c0.8-0.2,1.6-1.1,1.4-2.2c-0.3-1.9-0.6-3.4-0.9-4.7
		c-0.7-3.6-1.1-5.8-1.7-10.9c-0.1-0.4-0.1-0.8-0.1-1.2c3.2-1.8,6.7-3.4,10.4-4.9c0.1,1.3,0.2,2.5,0.3,3.6c0.6,7,1,11.2,3.6,18
		l0.2,0.6l0.2-0.1c1,2,1.9,3.3,2.9,3.9c0.7,0.4,1.5,0.6,2.3,0.6c0.6,0,1.1-0.1,1.7-0.3c0.3-0.1,0.6-0.2,0.9-0.4
		c2.5-1.2,3.7-3.5,3.7-5.1C45.7,67.2,45.2,66.5,44.4,66.2z M110.4,39c0.4,0.6,0.5,3.1,0.4,7.5l0,0c0,0.6-0.1,1.2-0.1,1.7
		C109.9,44.6,109.9,40,110.4,39z M146.6,46.5c0.8-3,2.7-8,6.8-8l0,0c0.6,0,1.2,0.1,1.8,0.3c0.7,2.9,1.8,6.2,2.7,8.4
		c-1.8,3.1-3.7,5.3-5.6,6.4c-1.5,0.7-2.5,0.8-3.1,0.9l0,0c-0.8,0-1.3-0.3-1.8-0.9C146.3,52.1,145.9,49.1,146.6,46.5z M160.1,7.7
		c0.3-2.6,1.1-3.6,1.8-3.7c0.5,0,1.3,1.1,1.6,2.2c2.6,9.9,2.5,19.8-0.3,28.7c-0.8,2.4-1.6,4.8-2.6,7
		C157.8,29.9,158.9,17.4,160.1,7.7z M57.1,46L57,45.5c-1.2,0.2-1.8-0.6-1.9-1.3c-0.1-0.5,0.1-1.2,0.7-1.3l0,0c0.6-0.1,1.1,0.3,1.4,1
		c0.3,0.5,0.4,1.1,0.5,1.4c-0.3,0.1-0.5,0.1-0.8,0.1L57.1,46L57.1,46z"/>
	<path id="XMLID_78_" class="st0" d="M299.1,55.1c-0.1-0.1-0.4-0.2-0.8-0.3c-0.6-0.1-1.2,0-1.8,0.3c-1.7,0.9-3.2,1.2-4.5,1
		c-0.2,0-0.5-0.1-0.7-0.2c-3.1-1.2-4.8-6-5.8-8.9c-0.4-1.1-0.7-1.9-1-2.4c-0.8-1.1-1.7-1.5-2.3-1.6c-0.3-0.1-0.6-0.1-0.9,0
		c-2.3,0.2-4.9,3.4-7.8,9.5l1.3-7.8L275,44c0.1-0.4,0-0.8-0.2-1.2c-0.2-0.3-0.5-0.5-0.8-0.7l-0.3-0.1l0,0h-0.1
		c-0.9-0.2-1.7,0.4-1.9,1.3c-0.3,2-3.4,19.5-13.8,19.5l0,0c-0.3,0-0.7-0.1-1-0.1c-2.2-0.3-4-1.2-5.4-2.8c6-4.7,8.5-7.6,9.4-9.1
		c0.1-0.1,0.2-0.3,0.3-0.4c0.6-1,1-2,1.1-3v-0.1c0.2-1.7-0.2-3.1-1.5-4.9c-0.9-1.3-2.6-2.3-4.2-2.7c-0.3-0.1-0.7-0.1-1-0.2
		c-2.6-0.4-5,0.1-7,1.5c-2.8,1.9-4.6,4.9-5.1,8.5c-0.2,1.4-0.5,6.2,2.3,10.4c-0.6,0.4-1.2,0.8-1.7,1.2c-2,1.5-3.6,2.6-5.3,3.4
		c0.1-1,0.3-2.2,0.4-3.2l0.1-0.7c0.1-0.7,0.2-1.4,0.2-2.2c0.6-5.2,1.5-16.2,1.6-17.8v-0.1c0-0.2,0.1-0.4,0.1-0.6
		c0.2-0.9,0.3-2-0.4-2.9c-0.3-0.4-0.8-0.8-1.7-0.9c-0.9-0.1-1.6,0.2-1.9,0.6c-0.8,0.7-0.9,1.9-0.9,2.8c-0.9,9-3.1,14.8-6.5,17.9
		c-1.7,1.5-2.3,1.9-3.3,1.8c-0.2,0-0.5-0.1-0.7-0.1c-1.1-0.3-2.3-2.9-1.8-9.6c0.3-4.7,0.8-9.6,1-11.4c0.4-1.7-0.2-2.7-0.7-3.2
		c-0.4-0.3-0.8-0.5-1.4-0.6c-0.4,0-0.8,0-1.1,0.2c-0.3,0.1-0.6,0.3-0.9,0.6c-1.7,1.6-3.8,2.4-6.2,2.6c0.2-1.6,0.4-3.5,0.4-3.5
		c0.8-8.6,1-29.2-14.5-33.3c-0.9-0.2-1.8-0.3-2.8-0.4c-0.4,0-0.8,0-1,0c-4.3,0.1-7.7,2.3-8.6,4.3c-0.8,1.8-2,6-3.2,12.1
		c-0.8,3.7-1.3,7.2-1.7,9.8l-0.2,1.4c-0.2,1.2-0.3,2.3-0.4,3.4c-1.6,0.6-2.7,1.2-4,1.9l-0.4,0.2c-4.4,2.4-7.3,6.3-8.5,11.3
		c-1.5,6.7,0,13.9,4.1,19.2c1.7,2.2,5.7,7.4,13.6,7.8c0.3,0,0.6,0,0.9,0.1c0.3,0,0.5,0.1,0.8,0.1c5.7,0.3,10-1.2,14.4-5.1
		c5.2-4.6,8.5-12.2,10.3-24l0.1-0.9c1.9,0,3.7-0.3,5.3-0.9l-0.2,1.3c-0.3,2.5-0.5,4.8-0.6,6.8c-0.4,5.5,0.8,9.3,3.4,11.3
		c1.1,0.8,2.4,1.3,4.1,1.4c0.2,0,0.5,0,0.7,0.1c1,0.1,4-0.6,6-2.2c0.7-0.6,1.4-1.2,2-2c0,0.1,0,0.2,0,0.2c-0.1,0.8-0.2,1.6-0.3,2.4
		c-0.2,1.9-0.4,3.5-0.7,5.1c-1.4,0.2-2.7,0.2-4.1,0c-1.3-0.2-2.5-0.4-3.5-0.7l-0.3-0.1c-0.6-0.2-1.6-0.4-2.6-0.5
		c-0.9-0.1-1.6-0.1-2.1,0.1c-1.5,0.4-2.3,2-2.1,4c0.2,1.8,1.6,6.2,8.6,7c0.5,0.1,1,0.1,1.4,0.1c4.6,0,7.9-2.7,9-7.6
		c3-0.9,6-2.8,9.6-5.3c2.1,1.8,4.7,3,8,3.5c0.6,0.1,1.2,0.1,2,0.1c0.1,0,0.1,0,0.2,0s0.2,0,0.2,0c4.6-0.1,7.2-2.4,9.5-5.5
		c-0.5,1.9-1,4.3-1.2,5.1c-0.2,0.8-0.1,1.6,0.3,2.1c0.3,0.5,0.9,0.9,1.7,1c0.9,0.2,2.1,0,2.7-1.7c1.7-4.9,4.3-11.7,6.9-16.3l0.1-0.1
		c1.8-2.6,2.8-2.7,2.8-2.7s0.1,0.1,0.4,0.5l0.1,0.1c0.1,0.2,0.4,0.9,0.6,1.5l0.1,0.3c1.4,3.5,4,10.1,9,11.1c1.1,0.2,2.4,0.2,3.7-0.2
		c3-0.9,4.9-2.3,5.1-3.9C300.1,56.3,299.8,55.6,299.1,55.1z M257.7,45.5c-0.8,2.5-3.4,6.7-8.2,11.1c-0.9-2-1.1-4.8-0.8-6.5
		c0.5-3.4,1.8-6,3.8-7c0.9-0.5,1.9-1,3-0.8c0.2,0,0.4,0.1,0.6,0.2C258.3,43.1,258.1,44.2,257.7,45.5z M233.6,67.5
		c-0.4,1.6-1,2.8-1.8,3.6c-1,1-2,1.8-4.1,1.6c-2.7-0.3-3.6-2.7-3.9-4c-0.3-1.2-0.1-1.9,0.2-2.1c0,0,0.1-0.1,0.4-0.1
		c0.1,0,0.2,0,0.3,0c0.4,0,0.7,0.1,1.1,0.2c0.8,0.2,2.1,0.5,3.7,0.7C230.8,67.6,232.2,67.6,233.6,67.5z M182.8,48.7l-0.1,0.1
		l0.2,0.4l0.1,0.5l0,0c0.5,2.2,1.2,3.6,2.1,4.4c0.9,0.8,2,1.2,3.3,1.2c0.2,0,0.4,0,0.7,0c0.3,0,0.7-0.1,1-0.2
		c2.7-0.6,4.4-2.6,4.7-4.2c0.2-0.9-0.2-1.7-0.9-2.1c-0.6-0.3-1.2-0.4-1.8-0.3c-0.8,0.2-1.4,0.7-1.9,1.3c-0.6,0.6-1.2,1.1-1.8,1.1
		c0,0-0.6-0.4-1-4.6c-0.3-4.6,0-7.5,0.5-11.8c0.8-0.2,1.4-0.3,1.4-0.3c0.2,0,0.4,0,0.5,0c0.3,0,0.4,0,1.1,0
		c3.6,0.2,7.4,1.4,10.3,3.2c1.1,0.7,2.8,1.4,4.3,1.9c1,0.4,2.3,0.9,2.5,1.1c1,1.6-0.5,9.4-4.7,16.8c-2.3,4.1-7.2,11.1-13.8,11
		c-3.6,0-6.9-1.5-9.5-4.3c-3.4-3.7-5.2-9.2-4.8-15.2c0.3-4.3,1.8-9.8,7.3-12.6C181.9,40.2,182,43.7,182.8,48.7z M208.3,34.8
		c0,0.1,0,0.3,0,0.5s0,0.5,0,0.7c-1.7-0.7-3.7-1.5-4.8-2.2c-4.9-3-9.9-3.7-12.5-3.9c-0.1,0-0.1,0-0.2,0c-0.5,0-1.3,0.1-2,0.2
		c-0.1,0-0.3,0-0.4,0c0.2-1.2,0.4-2.6,0.6-4.1c0.3-1.9,0.6-4,1-6.2c1-5.7,2.3-11.7,2.9-13.1c0.3-0.6,1.9-2.1,3.5-2.3
		c0.1,0,0.3,0,0.4,0c0.3,0,0.6,0,0.8,0c0.5,0,1,0.1,1.7,0.3C209.4,9.2,209.3,24,208.3,34.8z"/>
	<path id="XMLID_82_" class="st0" d="M254.1,86.3c-38.9-7.9-79.7-8.5-118-8c-20.6,0.3-38.7,1.2-55.5,2.7l-1.8,0.2
		c-10.9,1-22.2,2.1-32.6,5.5c-1.6,0.5-2.3,1.2-2,1.9c0.4,1.1,2.8,1.4,4.5,0.8c8.9-3,18.8-3.8,28.4-4.6c1.4-0.1,2.7-0.2,4.1-0.3
		c16.1-1.4,33.2-2.2,54-2.5c37.1-0.5,76.7,0.1,115.2,7.9c0.1,0,0.2,0,0.4,0c1.5,0,4.6-1.2,4.8-2.4C255.5,87.2,255.4,86.5,254.1,86.3
		z"/>
</g>
</svg>
